<?xml version="1.0" encoding="UTF-8" standalone="no"?>
<svg
   xmlns:dc="http://purl.org/dc/elements/1.1/"
   xmlns:cc="http://creativecommons.org/ns#"
   xmlns:rdf="http://www.w3.org/1999/02/22-rdf-syntax-ns#"
   xmlns:svg="http://www.w3.org/2000/svg"
   xmlns="http://www.w3.org/2000/svg"
   xmlns:sodipodi="http://sodipodi.sourceforge.net/DTD/sodipodi-0.dtd"
   xmlns:inkscape="http://www.inkscape.org/namespaces/inkscape"
   version="1.1"
   id="svg2"
   xml:space="preserve"
   width="527.56"
   height="445.79999"
   viewBox="0 0 527.56 445.79999"
   sodipodi:docname="logo horizontal.eps"><metadata
     id="metadata8"><rdf:RDF><cc:Work
         rdf:about=""><dc:format>image/svg+xml</dc:format><dc:type
           rdf:resource="http://purl.org/dc/dcmitype/StillImage" /></cc:Work></rdf:RDF></metadata><defs
     id="defs6" /><sodipodi:namedview
     pagecolor="#000000"
     bordercolor="#666666"
     borderopacity="1"
     objecttolerance="10"
     gridtolerance="10"
     guidetolerance="10"
     inkscape:pageopacity="0"
     inkscape:pageshadow="2"
     inkscape:window-width="640"
     inkscape:window-height="480"
     id="namedview4" /><g
     id="g10"
     inkscape:groupmode="layer"
     inkscape:label="ink_ext_XXXXXX"
     transform="matrix(1.3333333,0,0,-1.3333333,0,445.8)"><g
       id="g12"
       transform="scale(0.1)"><path
         d="m 2973.7,363.441 c 0,0 0,-237.519 0,-355.35116 9.98,0 18.43,0 28.41,0 0,109.55816 0,217.71116 0,326.43016 8.58,0 15.58,0 23.97,0 41.94,-81.758 83.39,-162.579 124.62,-242.938 H 3049.78 V 62.9805 h 115.59 c 9.4,-18.3321 18.89,-36.8203 28.25,-55.08206 h 33.52 L 3045.6,363.441 Z M 2543.23,37.4688 2517.02,37.5391 2350.98,362.719 h -71.89 c 0,0 0,-237.52 0,-355.34791 9.97,0 18.42,0 28.4,0 0,109.55891 0,217.71891 0,326.42991 8.58,0 15.58,0 23.97,0 56.5,-110.141 112.33,-218.992 167.54,-326.62131 25.28,0 48.68,0 72.3,0 0,119.37131 0,356.01131 0,356.01131 h -28.07 z m 193.29,327.3902 h -28.95 V 7.64844 h 199.51 V 36.6016 H 2736.52 Z M 2012.29,26.5508 c -87.2,0 -158.16,70.9492 -158.16,158.1482 0,87.211 70.96,158.16 158.16,158.16 87.2,0 158.15,-70.949 158.15,-158.16 0,-87.199 -70.95,-158.1482 -158.15,-158.1482 z m 0,342.8472 c -101.83,0 -184.7,-82.867 -184.7,-184.699 0,-101.8201 82.87,-184.6872812 184.7,-184.6872812 101.83,0 184.69,82.8671812 184.69,184.6872812 0,101.832 -82.86,184.699 -184.69,184.699 z m 1539.15,-331.2183 -26.22,0.082 -166.03,325.1793 h -71.9 c 0,0 0,-237.519 0,-355.35116 9.98,0 18.43,0 28.41,0 0,109.55816 0,217.71116 0,326.43016 8.58,0 15.57,0 23.97,0 56.49,-110.141 112.33,-218.989 167.54,-326.62156 25.28,0 48.67,0 72.29,0 0,119.36356 0,356.01156 0,356.01156 h -28.06 z m 352.27,52.0117 c -27.24,-35.4726 -57,-55.9805 -128.48,-55.9805 h -88.94 V 337.469 h 94.95 c 41.34,0 103.81,0 138.15,-86.821 17.31,-43.726 15.12,-120.339 -15.68,-160.4566 z m 40.15,170.1096 c -40.94,103.488 -120.09,103.488 -162.62,103.488 H 3660.01 V 7.89063 h 115.22 c 81.69,0 118.77,26.50777 149.33,66.32027 37.89,49.3091 39.53,135.0081 19.3,186.0901 z m -2568.05,75.801 c 36.99,0 72.86,0 111.11,0 0,-110.832 0,-219.973 0,-329.61372 10.64,0 18.87,0 30.51,0 0,110.57072 0,219.69172 0,330.61372 38.62,0 75.04,0 111.31,0 0,9.82 0,17.73 0,25.808 -85.14,0 -168.93,0 -252.93,0 0,-9.172 0,-17.14 0,-26.808 z m -863.654,27.046 c 0,-7.277 0,-13.636 0,-19.988 -0.043,-69.308 0.532,-138.621 -0.328,-207.91 C 511.215,85.8906 481.66,46.4688 437.926,33.3984 391.688,19.5898 344.148,34.7617 317.746,72.1992 303.281,92.7109 297.68,115.879 297.777,140.891 c 0.27,67.531 0.078,135.05 0.071,202.578 0,6.332 0,12.652 0,19.773 -10.871,0 -19.481,0 -30.328,0 0,-73.23 -0.02,-144.254 0.027,-215.273 0.004,-7.11 -0.035,-14.25 0.68,-21.297 C 277.301,37.3906 353.313,-16.0898 440.531,5.30859 502.098,20.4297 539.91,68.3906 541.109,136.66 c 1.25,71.059 0.293,226.488 0.293,226.488 0,0 -19.351,0 -29.246,0 z M 0,6.83984 c 9.64063,0 17.7305,0 27.7461,0 0,54.44146 0,108.03116 0,163.80116 53.1445,0 104.3749,0 156.2739,0 0,10.05 0,17.89 0,27.738 -52.614,0 -103.8169,0 -155.688,0 0,46.332 0,90.609 0,138.371 57.4766,0 113.402,0 168.773,0 0,10.219 0,18.172 0,25.84 -66.769,0 -132.1089,0 -197.105,0 C 0,242.949 0,124.832 0,6.83984 Z M 896.32,37.4688 870.109,37.5391 704.074,362.719 h -71.898 c 0,0 0,-237.52 0,-355.34791 9.976,0 18.429,0 28.41,0 0,109.55891 0,217.71891 0,326.42991 8.578,0 15.57,0 23.965,0 C 741.047,223.66 796.883,114.809 852.094,7.17969 c 25.277,0 48.676,0 72.293,0 0,119.37131 0,356.01131 0,356.01131 H 896.32 Z M 1704.01,5.10938 h 31.54 V 363.68 h -31.54 z M 1181.63,26.5391 c -87.21,0 -158.16,70.9414 -158.16,158.1519 0,87.207 70.95,158.161 158.16,158.161 63.01,0 117.38,-37.133 142.78,-90.582 h 28.93 c -27.04,68.472 -93.74,117.109 -171.71,117.109 -101.84,0 -184.692,-82.848 -184.692,-184.688 C 996.938,82.8516 1079.79,0 1181.63,0 c 79.55,0 147.32,50.6602 173.26,121.332 h -28.45 C 1301.96,65.6016 1246.3,26.5391 1181.63,26.5391"
         style="fill:#ffffff;fill-opacity:1;fill-rule:nonzero;stroke:none"
         id="path14" /><path
         d="m 2540.4,2894.25 -319.8,383.88 c -31.6,37.92 -78.42,59.86 -127.79,59.86 H 743.512 c -43.5,0 -78.762,-35.26 -78.762,-78.76 v -436.57 h 1842.12 c 37,0 57.22,43.16 33.53,71.59 z M 1367.82,1269.7 1687.62,885.82 c 31.6,-37.929 78.42,-59.859 127.79,-59.859 h 1349.3 c 43.5,0 78.76,35.258 78.76,78.758 V 1341.28 H 1401.35 c -37,0 -57.21,-43.15 -33.53,-71.58 z m 940.88,1206.62 -714.8,-1.05 c -19.85,-0.03 -35.92,-16.14 -35.89,-36 l 1.05,-714.8 c 0.03,-19.85 16.14,-35.91 35.99,-35.89 l 714.8,1.05 c 19.85,0.03 35.92,16.15 35.89,36 l -1.05,714.8 c -0.03,19.85 -16.14,35.91 -35.99,35.89 z m 879.64,420.46 -469.7,435.6 c -22.19,23.26 -61.41,7.52 -61.36,-24.63 l 0.45,-1804.73 c 0.03,-19.67 15.99,-35.58 35.66,-35.55 l 514.86,0.75 c 19.66,0.03 35.58,15.99 35.55,35.65 l 0.32,1265.05 c 0.02,48.53 -20.2,94.86 -55.78,127.86 z m -1972.85,-194.81 -514.861,-0.75 c -19.66,-0.03 -35.578,-15.99 -35.551,-35.66 L 664.75,1400.52 c -0.012,-48.53 20.203,-94.87 55.785,-127.86 L 1190.23,837.059 c 22.2,-23.27 61.41,-7.528 61.37,24.621 l -0.45,1804.74 c -0.03,19.66 -16,35.58 -35.66,35.55"
         style="fill:#3dbb91;fill-opacity:1;fill-rule:nonzero;stroke:none"
         id="path16" /></g></g></svg>
